<svg xmlns="http://www.w3.org/2000/svg" viewBox="0 0 54.52 20.71"><defs><style>.cls-1{fill:#fff;}.cls-2{fill:#006b54;}</style></defs><g id="Camada_2" data-name="Camada 2"><g id="Camada_1-2" data-name="Camada 1"><path class="cls-1" d="M0,12.78A8.75,8.75,0,0,1,.91,8.71,7,7,0,0,1,3.44,6,6.72,6.72,0,0,1,7,5a6.6,6.6,0,0,1,2.85.66,5.84,5.84,0,0,1,2.26,1.72V0h3.09V20.47H12.13v-2.3A5.72,5.72,0,0,1,10,20a6.23,6.23,0,0,1-3,.71,6.67,6.67,0,0,1-3.55-1A7.29,7.29,0,0,1,.91,16.9,9.07,9.07,0,0,1,0,12.78Zm12.13.05a5.47,5.47,0,0,0-.65-2.74A4.39,4.39,0,0,0,9.84,8.32a4.35,4.35,0,0,0-4.41,0,4.39,4.39,0,0,0-1.66,1.75,5.48,5.48,0,0,0-.62,2.71,5.79,5.79,0,0,0,.62,2.76,4.77,4.77,0,0,0,1.66,1.83A4.41,4.41,0,0,0,7.64,18a4.27,4.27,0,0,0,2.2-.61,4.39,4.39,0,0,0,1.64-1.77A5.62,5.62,0,0,0,12.13,12.83Z"/><path class="cls-1" d="M32.83,12.47a10.44,10.44,0,0,1-.1,1.55H21.4A4.25,4.25,0,0,0,22.72,17a4.1,4.1,0,0,0,2.91,1.11,3.57,3.57,0,0,0,3.49-2.13h3.31A6.92,6.92,0,0,1,30,19.39a7,7,0,0,1-4.35,1.32,7.61,7.61,0,0,1-3.82-1A7.18,7.18,0,0,1,19.17,17a8.79,8.79,0,0,1-.94-4.15,8.87,8.87,0,0,1,.91-4.12A6.69,6.69,0,0,1,21.75,6a7.63,7.63,0,0,1,3.88-1,7.33,7.33,0,0,1,3.73.94,6.54,6.54,0,0,1,2.56,2.65A8.08,8.08,0,0,1,32.83,12.47Zm-3.2-1a3.62,3.62,0,0,0-1.21-2.8,4.25,4.25,0,0,0-2.93-1,3.87,3.87,0,0,0-2.72,1,4.35,4.35,0,0,0-1.34,2.8Z"/><path class="cls-1" d="M41.58,17.65l4.2-12.42H49L43.38,20.47H39.72L34.1,5.23h3.28Z"/><path class="cls-1" d="M52.59,20.66a1.85,1.85,0,0,1-1.4-.58,2.1,2.1,0,0,1,0-2.88,1.94,1.94,0,0,1,2.77,0,2.13,2.13,0,0,1,0,2.88A1.84,1.84,0,0,1,52.59,20.66Z"/><path class="cls-2" d="M52.59,20.66a1.85,1.85,0,0,1-1.4-.58,2.1,2.1,0,0,1,0-2.88,1.94,1.94,0,0,1,2.77,0,2.13,2.13,0,0,1,0,2.88A1.84,1.84,0,0,1,52.59,20.66Z"/></g></g></svg>