<svg xmlns="http://www.w3.org/2000/svg" viewBox="0 0 115.53 24"><defs><style>.cls-1{fill:#fff;}.cls-2{fill:#006b54;}</style></defs><g id="Camada_2" data-name="Camada 2"><g id="Camada_1-2" data-name="Camada 1"><path class="cls-1" d="M7.58,8.68H4.84V21.35H1.75V8.68H0V6.11H1.75V5A4.86,4.86,0,0,1,3.09,1.22,6.34,6.34,0,0,1,7.37,0V2.63a2.75,2.75,0,0,0-2,.55A2.45,2.45,0,0,0,4.84,5V6.11H7.58Z"/><path class="cls-1" d="M11.86,4.09a1.88,1.88,0,0,1-1.4-.58A2,2,0,0,1,9.9,2.07,2,2,0,0,1,10.46.64a1.88,1.88,0,0,1,1.4-.58,1.81,1.81,0,0,1,1.37.58,1.94,1.94,0,0,1,.57,1.43,2,2,0,0,1-.57,1.44A1.81,1.81,0,0,1,11.86,4.09Zm1.51,2V21.35H10.3V6.11Z"/><path class="cls-1" d="M24.87,5.86A6.37,6.37,0,0,1,28,6.61a5.28,5.28,0,0,1,2.18,2.21A7.46,7.46,0,0,1,31,12.36v9h-3V12.83a4.46,4.46,0,0,0-1-3.12A3.48,3.48,0,0,0,24.2,8.6a3.54,3.54,0,0,0-2.74,1.11,4.42,4.42,0,0,0-1,3.12v8.52H17.39V6.11h3.07V7.85a5.16,5.16,0,0,1,1.91-1.46A6.1,6.1,0,0,1,24.87,5.86Z"/><path class="cls-1" d="M33.84,13.66a8.7,8.7,0,0,1,.91-4.06,6.92,6.92,0,0,1,2.53-2.74,6.68,6.68,0,0,1,3.55-1,6.13,6.13,0,0,1,3,.72A6.05,6.05,0,0,1,46,8.32V6.11h3.09V21.35H46V19.08a6.18,6.18,0,0,1-2.12,1.8,6.75,6.75,0,0,1-6.57-.28,7.29,7.29,0,0,1-2.53-2.82A9,9,0,0,1,33.84,13.66ZM46,13.72A5.45,5.45,0,0,0,45.32,11a4.39,4.39,0,0,0-1.64-1.77,4.29,4.29,0,0,0-4.41,0A4.43,4.43,0,0,0,37.61,11,5.51,5.51,0,0,0,37,13.66a5.83,5.83,0,0,0,.62,2.77,4.74,4.74,0,0,0,1.66,1.82,4.31,4.31,0,0,0,2.21.61,4.17,4.17,0,0,0,2.2-.61,4.27,4.27,0,0,0,1.64-1.77A5.58,5.58,0,0,0,46,13.72Z"/><path class="cls-1" d="M60.57,5.86a6.43,6.43,0,0,1,3.12.75,5.28,5.28,0,0,1,2.18,2.21,7.46,7.46,0,0,1,.78,3.54v9h-3V12.83a4.42,4.42,0,0,0-1-3.12A3.46,3.46,0,0,0,59.9,8.6a3.56,3.56,0,0,0-2.75,1.11,4.46,4.46,0,0,0-1,3.12v8.52H53.09V6.11h3.07V7.85a5.16,5.16,0,0,1,1.91-1.46A6.1,6.1,0,0,1,60.57,5.86Z"/><path class="cls-1" d="M69.54,13.72a8.84,8.84,0,0,1,.91-4.12A6.84,6.84,0,0,1,73,6.83a7.35,7.35,0,0,1,3.77-1,7.19,7.19,0,0,1,4.44,1.33,6.4,6.4,0,0,1,2.39,3.73H80.32A3.66,3.66,0,0,0,79,9.15a3.76,3.76,0,0,0-2.23-.63,3.68,3.68,0,0,0-3,1.38,5.87,5.87,0,0,0-1.11,3.82,6,6,0,0,0,1.11,3.84,3.68,3.68,0,0,0,3,1.38,3.4,3.4,0,0,0,3.52-2.4h3.31a6.88,6.88,0,0,1-2.42,3.7A7,7,0,0,1,76.8,21.6a7.25,7.25,0,0,1-3.77-1,7,7,0,0,1-2.58-2.76A9.05,9.05,0,0,1,69.54,13.72Z"/><path class="cls-1" d="M100.27,13.36a10.36,10.36,0,0,1-.11,1.55H88.84a4.29,4.29,0,0,0,1.32,2.93,4,4,0,0,0,2.9,1.1,3.57,3.57,0,0,0,3.5-2.12h3.31a6.91,6.91,0,0,1-2.45,3.45,7,7,0,0,1-4.36,1.33,7.51,7.51,0,0,1-3.82-1,7.06,7.06,0,0,1-2.63-2.76,8.82,8.82,0,0,1-1-4.15,8.84,8.84,0,0,1,.92-4.12,6.78,6.78,0,0,1,2.61-2.77,7.72,7.72,0,0,1,3.87-1,7.44,7.44,0,0,1,3.74.94,6.6,6.6,0,0,1,2.55,2.66A8,8,0,0,1,100.27,13.36Zm-3.2-1a3.63,3.63,0,0,0-1.21-2.79,4.26,4.26,0,0,0-2.93-1.05,3.85,3.85,0,0,0-2.72,1.05,4.36,4.36,0,0,0-1.35,2.79Z"/><path class="cls-2" d="M115.53,17.33a4,4,0,0,1-.67,2.2,5.22,5.22,0,0,1-2,1.73,7.37,7.37,0,0,1-3,.84V24H108.1V22.1A7.89,7.89,0,0,1,104,20.72a3.66,3.66,0,0,1-1.57-3.09h3.31a2.36,2.36,0,0,0,.68,1.52,3,3,0,0,0,1.71.75V14.75a25.83,25.83,0,0,1-3-.8,5,5,0,0,1-2-1.31,3.56,3.56,0,0,1-.78-2.44A3.93,3.93,0,0,1,104,7a7.3,7.3,0,0,1,4.13-1.5V3.6h1.76V5.5a6.94,6.94,0,0,1,3.83,1.31,4.09,4.09,0,0,1,1.65,3H112a2.06,2.06,0,0,0-.65-1.28,3,3,0,0,0-1.52-.8v5.06a21.36,21.36,0,0,1,3,.79,4.63,4.63,0,0,1,1.93,1.29A3.49,3.49,0,0,1,115.53,17.33Zm-10-7.27a1.83,1.83,0,0,0,.66,1.5,5.18,5.18,0,0,0,1.9.87V7.7a3.36,3.36,0,0,0-1.88.72A2.12,2.12,0,0,0,105.54,10.06Zm4.32,9.84a3.21,3.21,0,0,0,1.87-.82,2.17,2.17,0,0,0,.68-1.61,1.71,1.71,0,0,0-.68-1.46,4.87,4.87,0,0,0-1.87-.86Z"/></g></g></svg>